# Aspose.3D Wavefront OBJ Exporter
# Copyright 2004-2022 Aspose Pty Ltd.
# File created: 12/30/2022 02:12:01

mtllib material.lib

#
# object Head
#

v 80 279.99995644876645424 -80.00001303365330329
v 80 119.99995644876857168 -79.99998696634456512
v 80 279.99998251607519248 79.99998696634456512
v 80 119.99998251607730992 80.00001303365330329
v -80 279.99995644876645424 -80.00001303365330329
v -80 119.99995644876857168 -79.99998696634456512
v -80 279.99998251607519248 79.99998696634456512
v -80 119.99998251607730992 80.00001303365330329
# 8 vertices

vn 0 0.99999999999998656 -1.6292067939183141E-07
vn 0 0.99999999999998656 -1.6292067939183141E-07
vn 0 0.99999999999998656 -1.6292067939183141E-07
vn 0 0.99999999999998656 -1.6292067939183141E-07
vn 0 1.6292067939183141E-07 0.99999999999998656
vn 0 1.6292067939183141E-07 0.99999999999998656
vn 0 1.6292067939183141E-07 0.99999999999998656
vn 0 1.6292067939183141E-07 0.99999999999998656
vn -1 0 0
vn -1 0 0
vn -1 0 0
vn -1 0 0
vn 0 -0.99999999999998656 1.6292067939183141E-07
vn 0 -0.99999999999998656 1.6292067939183141E-07
vn 0 -0.99999999999998656 1.6292067939183141E-07
vn 0 -0.99999999999998656 1.6292067939183141E-07
vn 1 0 0
vn 1 0 0
vn 1 0 0
vn 1 0 0
vn 0 -1.6292067939183141E-07 -0.99999999999998656
vn 0 -1.6292067939183141E-07 -0.99999999999998656
vn 0 -1.6292067939183141E-07 -0.99999999999998656
vn 0 -1.6292067939183141E-07 -0.99999999999998656
# 24 vertex normals

vt 0.25 0.875 0
vt 0.25 1 0
vt 0.125 0.75 0
vt 0.25 0.75 0
vt 0.375 0.875 0
vt 0.5 0.875 0
vt 0.125 0.875 0
vt 0.375 1 0
vt 0 0.75 0
vt 0 0.875 0
vt 0.375 0.875 0
vt 0.25 0.875 0
vt 0.125 1 0
vt 0.25 1 0
vt 0.375 0.75 0
vt 0.5 0.75 0
# 16 texture coords

g Head
usemtl Material
s 1
f 1/1/1 5/2/2 7/13/3 3/7/4
f 4/3/5 3/7/6 7/10/7 8/9/8
f 8/16/9 7/6/10 5/11/11 6/15/12
f 6/14/13 2/12/14 4/5/15 8/8/16
f 2/4/17 1/1/18 3/7/19 4/3/20
f 6/15/21 5/11/22 1/1/23 2/4/24
#6 polygons


#
# object HeadOut
#

v -90 109.9999841452842304 90.00001466285996798
v -90 289.99998414528181456 89.99998533713764464
v -90 109.99995481956190704 -89.99998533713764464
v -90 289.999954819559548 -90.00001466285996798
v 90 109.9999841452842304 90.00001466285996798
v 90 289.99998414528181456 89.99998533713764464
v 90 109.99995481956190704 -89.99998533713764464
v 90 289.999954819559548 -90.00001466285996798
# 8 vertices

vn -1 0 0
vn -1 0 0
vn -1 0 0
vn -1 0 0
vn 0 -1.6292067961387602E-07 -0.99999999999998672
vn 0 -1.6292067961387602E-07 -0.99999999999998672
vn 0 -1.6292067961387602E-07 -0.99999999999998672
vn 0 -1.6292067961387602E-07 -0.99999999999998672
vn 1 0 0
vn 1 0 0
vn 1 0 0
vn 1 0 0
vn 0 1.6292067961387602E-07 0.99999999999998672
vn 0 1.6292067961387602E-07 0.99999999999998672
vn 0 1.6292067961387602E-07 0.99999999999998672
vn 0 1.6292067961387602E-07 0.99999999999998672
vn 0 -0.99999999999998672 1.6292067961387602E-07
vn 0 -0.99999999999998672 1.6292067961387602E-07
vn 0 -0.99999999999998672 1.6292067961387602E-07
vn 0 -0.99999999999998672 1.6292067961387602E-07
vn 0 0.99999999999998672 -1.6292067961387602E-07
vn 0 0.99999999999998672 -1.6292067961387602E-07
vn 0 0.99999999999998672 -1.6292067961387602E-07
vn 0 0.99999999999998672 -1.6292067961387602E-07
# 24 vertex normals

vt 0.625 0.75 0
vt 0.875 0.875 0
vt 0.625 0.875 0
vt 0.5 0.75 0
vt 0.75 0.875 0
vt 0.875 1 0
vt 0.75 1 0
vt 0.625 1 0
vt 0.75 1 0
vt 1 0.875 0
vt 0.75 0.75 0
vt 0.875 0.875 0
vt 0.5 0.875 0
vt 0.875 0.75 0
vt 1 0.75 0
vt 0.75 0.875 0
# 16 texture coords

g HeadOut
usemtl Material
s 2
f 9/31/25 10/26/26 12/18/27 11/30/28
f 11/30/29 12/18/30 16/32/31 15/27/32
f 15/27/33 16/32/34 14/19/35 13/17/36
f 13/17/37 14/19/38 10/29/39 9/20/40
f 11/25/41 15/21/42 13/28/43 9/22/44
f 16/32/45 12/23/46 10/24/47 14/19/48
#6 polygons


#
# object Body
#

v -40 -119.99999459573855632 80.00001955048172419
v -40 120.00002066304729453 79.99998044951614416
v -40 -120.00002066304729453 -79.99998044951614416
v -40 119.99999459573855632 -80.00001955048172419
v 40 -119.99999459573855632 80.00001955048172419
v 40 120.00002066304729453 79.99998044951614416
v 40 -120.00002066304729453 -79.99998044951614416
v 40 119.99999459573855632 -80.00001955048172419
# 8 vertices

vn -1 0 0
vn -1 0 0
vn -1 0 0
vn -1 0 0
vn 0 -1.6292067939183141E-07 -0.99999999999998656
vn 0 -1.6292067939183141E-07 -0.99999999999998656
vn 0 -1.6292067939183141E-07 -0.99999999999998656
vn 0 -1.6292067939183141E-07 -0.99999999999998656
vn 1 0 0
vn 1 0 0
vn 1 0 0
vn 1 0 0
vn 0 1.6292067939183141E-07 0.99999999999998656
vn 0 1.6292067939183141E-07 0.99999999999998656
vn 0 1.6292067939183141E-07 0.99999999999998656
vn 0 1.6292067939183141E-07 0.99999999999998656
vn 0 -0.99999999999998656 1.6292067939183141E-07
vn 0 -0.99999999999998656 1.6292067939183141E-07
vn 0 -0.99999999999998656 1.6292067939183141E-07
vn 0 -0.99999999999998656 1.6292067939183141E-07
vn 0 0.99999999999998656 -1.6292067939183141E-07
vn 0 0.99999999999998656 -1.6292067939183141E-07
vn 0 0.99999999999998656 -1.6292067939183141E-07
vn 0 0.99999999999998656 -1.6292067939183141E-07
# 24 vertex normals

vt 0.625 0.6874999403953552 0
vt 0.3125 0.6875 0
vt 0.3125 0.5 0
vt 0.25 0.6875000596046448 0
vt 0.5 0.6875 0
vt 0.4375 0.75 0
vt 0.4375 0.6875 0
vt 0.4375 0.5 0
vt 0.3125 0.75 0
vt 0.625 0.4999999403953552 0
vt 0.25 0.5 0
vt 0.5 0.5 0
vt 0.4375 0.75 0
vt 0.4375 0.6875 0
vt 0.5625 0.75 0
vt 0.5625 0.6875 0
# 16 texture coords

g Body
usemtl Material
s 4
f 17/42/49 18/33/50 20/37/51 19/44/52
f 19/44/53 20/37/54 24/39/55 23/40/56
f 23/40/57 24/39/58 22/34/59 21/35/60
f 21/35/61 22/34/62 18/36/63 17/43/64
f 19/45/65 23/46/66 21/48/67 17/47/68
f 24/39/69 20/38/70 18/41/71 22/34/72
#6 polygons


#
# object BodyOut
#

v -50 -129.99998533713710464 90.00002117968715253
v -50 130.00001466285942797 89.99997882031046
v -50 -130.00001466285942797 -89.99997882031046
v -50 129.99998533713710464 -90.00002117968715253
v 50 -129.99998533713710464 90.00002117968715253
v 50 130.00001466285942797 89.99997882031046
v 50 -130.00001466285942797 -89.99997882031046
v 50 129.99998533713710464 -90.00002117968715253
# 8 vertices

vn -1 0 0
vn -1 0 0
vn -1 0 0
vn -1 0 0
vn 0 -1.6292067939183141E-07 -0.99999999999998656
vn 0 -1.6292067939183141E-07 -0.99999999999998656
vn 0 -1.6292067939183141E-07 -0.99999999999998656
vn 0 -1.6292067939183141E-07 -0.99999999999998656
vn 1 0 0
vn 1 0 0
vn 1 0 0
vn 1 0 0
vn 0 1.6292067939183141E-07 0.99999999999998656
vn 0 1.6292067939183141E-07 0.99999999999998656
vn 0 1.6292067939183141E-07 0.99999999999998656
vn 0 1.6292067939183141E-07 0.99999999999998656
vn 0 -0.99999999999998656 1.6292067939183141E-07
vn 0 -0.99999999999998656 1.6292067939183141E-07
vn 0 -0.99999999999998656 1.6292067939183141E-07
vn 0 -0.99999999999998656 1.6292067939183141E-07
vn 0 0.99999999999998656 -1.6292067939183141E-07
vn 0 0.99999999999998656 -1.6292067939183141E-07
vn 0 0.99999999999998656 -1.6292067939183141E-07
vn 0 0.99999999999998656 -1.6292067939183141E-07
# 24 vertex normals

vt 0.3125 0.5 0
vt 0.5625 0.4375 0
vt 0.3125 0.4375 0
vt 0.5 0.453125 0
vt 0.5 0.265625 0
vt 0.4375 0.265625 0
vt 0.4375 0.453125 0
vt 0.5625000596046448 0.5 0
vt 0.4375 0.5 0
vt 0.4375000298023224 0.5 0
vt 0.625 0.24999994039535524 0
vt 0.4375 0.4375 0
vt 0.5 0.4375 0
vt 0.5 0.25 0
vt 0.4375 0.25 0
vt 0.25 0.25 0
vt 0.25 0.4375000596046448 0
vt 0.625 0.4374999403953552 0
vt 0.3125 0.2500000298023224 0
vt 0.4375 0.4375 0
# 20 texture coords

g BodyOut
usemtl Material
s 8
f 25/59/73 26/66/74 28/61/75 27/62/76
f 27/53/77 28/52/78 32/55/79 31/54/80
f 31/63/81 32/60/82 30/51/83 29/67/84
f 29/67/85 30/51/86 26/65/87 25/64/88
f 27/58/89 31/68/90 29/50/91 25/56/92
f 32/60/93 28/57/94 26/49/95 30/51/96
#6 polygons


#
# object RArm
#

v -40 -120.00000274177223502 140.00002145783102491
v -40 120.00001251701361582 139.99998235686544496
v -40 -120.00001251701361582 80.0000176431345551
v -40 120.00000274177223502 79.99997854216897504
v 40 -120.00000274177223502 140.00002145783102491
v 40 120.00001251701361582 139.99998235686544496
v 40 -120.00001251701361582 80.0000176431345551
v 40 120.00000274177223502 79.99997854216897504
# 8 vertices

vn -1 0 0
vn -1 0 0
vn -1 0 0
vn -1 0 0
vn 0 -1.6292067939183141E-07 -0.99999999999998656
vn 0 -1.6292067939183141E-07 -0.99999999999998656
vn 0 -1.6292067939183141E-07 -0.99999999999998656
vn 0 -1.6292067939183141E-07 -0.99999999999998656
vn 1 0 0
vn 1 0 0
vn 1 0 0
vn 1 0 0
vn 0 1.6292067939183141E-07 0.99999999999998656
vn 0 1.6292067939183141E-07 0.99999999999998656
vn 0 1.6292067939183141E-07 0.99999999999998656
vn 0 1.6292067939183141E-07 0.99999999999998656
vn 0 -0.99999999999998656 1.6292067939183141E-07
vn 0 -0.99999999999998656 1.6292067939183141E-07
vn 0 -0.99999999999998656 1.6292067939183141E-07
vn 0 -0.99999999999998656 1.6292067939183141E-07
vn 0 0.99999999999998656 -1.6292067939183141E-07
vn 0 0.99999999999998656 -1.6292067939183141E-07
vn 0 0.99999999999998656 -1.6292067939183141E-07
vn 0 0.99999999999998656 -1.6292067939183141E-07
# 24 vertex normals

vt 0.6875 0.6875 0
vt 0.84375 0.6874999403953552 0
vt 0.734375 0.75 0
vt 0.625 0.6875000596046448 0
vt 0.6875 0.5 0
vt 0.84375 0.4999999403953552 0
vt 0.734375 0.75 0
vt 0.6875 0.75 0
vt 0.734375 0.6875 0
vt 0.796875 0.6875 0
vt 0.796875 0.5 0
vt 0.734375 0.5 0
vt 0.78125 0.75 0
vt 0.625 0.5 0
vt 0.734375 0.6875 0
vt 0.78125 0.6875 0
# 16 texture coords

g RArm
usemtl Material
s 16
f 33/74/97 34/70/98 36/78/99 35/79/100
f 35/79/101 36/78/102 40/77/103 39/80/104
f 39/80/105 40/77/106 38/69/107 37/73/108
f 37/73/109 38/69/110 34/72/111 33/82/112
f 35/75/113 39/83/114 37/84/115 33/81/116
f 40/77/117 36/71/118 34/76/119 38/69/120
#6 polygons


#
# object RArmOut
#

v -50 -129.999993483171096 150.00002117968779202
v -50 130.00000651682543661 149.999978820311128
v -50 -130.00000651682543661 70.00002117968887205
v -50 129.999993483171096 69.99997882031219376
v 50 -129.999993483171096 150.00002117968779202
v 50 130.00000651682543661 149.999978820311128
v 50 -130.00000651682543661 70.00002117968887205
v 50 129.999993483171096 69.99997882031219376
# 8 vertices

vn -1 0 0
vn -1 0 0
vn -1 0 0
vn -1 0 0
vn 0 -1.6292067939183141E-07 -0.99999999999998656
vn 0 -1.6292067939183141E-07 -0.99999999999998656
vn 0 -1.6292067939183141E-07 -0.99999999999998656
vn 0 -1.6292067939183141E-07 -0.99999999999998656
vn 1 0 0
vn 1 0 0
vn 1 0 0
vn 1 0 0
vn 0 1.6292067939183141E-07 0.99999999999998656
vn 0 1.6292067939183141E-07 0.99999999999998656
vn 0 1.6292067939183141E-07 0.99999999999998656
vn 0 1.6292067939183141E-07 0.99999999999998656
vn 0 -0.99999999999998656 1.6292067939183141E-07
vn 0 -0.99999999999998656 1.6292067939183141E-07
vn 0 -0.99999999999998656 1.6292067939183141E-07
vn 0 -0.99999999999998656 1.6292067939183141E-07
vn 0 0.99999999999998656 -1.6292067939183141E-07
vn 0 0.99999999999998656 -1.6292067939183141E-07
vn 0 0.99999999999998656 -1.6292067939183141E-07
vn 0 0.99999999999998656 -1.6292067939183141E-07
# 24 vertex normals

vt 0.84375 0.4374999403953552 0
vt 0.78125 0.5 0
vt 0.78125 0.4375 0
vt 0.6875 0.5 0
vt 0.734375 0.5 0
vt 0.84375 0.24999994039535524 0
vt 0.734375 0.4375 0
vt 0.625 0.25 0
vt 0.625 0.4375000596046448 0
vt 0.796875 0.4375 0
vt 0.6875 0.25 0
vt 0.734375 0.5 0
vt 0.734375 0.25 0
vt 0.6875 0.4375 0
vt 0.796875 0.25 0
vt 0.734375 0.4375 0
# 16 texture coords

g RArmOut
usemtl Material
s 32
f 41/90/121 42/85/122 44/94/123 43/99/124
f 43/99/125 44/94/126 48/100/127 47/97/128
f 47/97/129 48/100/130 46/98/131 45/95/132
f 45/95/133 46/98/134 42/93/135 41/92/136
f 43/89/137 47/91/138 45/87/139 41/86/140
f 48/100/141 44/96/142 42/88/143 46/98/144
#6 polygons


#
# object LArm
#

v -40 -120.00000274177223502 -79.99997854216897504
v -40 120.00001251701361582 -80.0000176431345551
v -40 -120.00001251701361582 -139.99998235686544496
v -40 120.00000274177223502 -140.00002145783102491
v 40 -120.00000274177223502 -79.99997854216897504
v 40 120.00001251701361582 -80.0000176431345551
v 40 -120.00001251701361582 -139.99998235686544496
v 40 120.00000274177223502 -140.00002145783102491
# 8 vertices

vn -1 0 0
vn -1 0 0
vn -1 0 0
vn -1 0 0
vn 0 -1.6292067939183141E-07 -0.99999999999998656
vn 0 -1.6292067939183141E-07 -0.99999999999998656
vn 0 -1.6292067939183141E-07 -0.99999999999998656
vn 0 -1.6292067939183141E-07 -0.99999999999998656
vn 1 0 0
vn 1 0 0
vn 1 0 0
vn 1 0 0
vn 0 1.6292067939183141E-07 0.99999999999998656
vn 0 1.6292067939183141E-07 0.99999999999998656
vn 0 1.6292067939183141E-07 0.99999999999998656
vn 0 1.6292067939183141E-07 0.99999999999998656
vn 0 -0.99999999999998656 1.6292067939183141E-07
vn 0 -0.99999999999998656 1.6292067939183141E-07
vn 0 -0.99999999999998656 1.6292067939183141E-07
vn 0 -0.99999999999998656 1.6292067939183141E-07
vn 0 0.99999999999998656 -1.6292067939183141E-07
vn 0 0.99999999999998656 -1.6292067939183141E-07
vn 0 0.99999999999998656 -1.6292067939183141E-07
vn 0 0.99999999999998656 -1.6292067939183141E-07
# 24 vertex normals

vt 0.609375 0.1875 0
vt 0.71875149011611936 -5.960464477539063E-08 0
vt 0.5625 0.1875 0
vt 0.67187649011611936 0.1875 0
vt 0.671875 0 0
vt 0.71875149011611936 0.18749994039535524 0
vt 0.671875 0.1875 0
vt 0.609375 0 0
vt 0.5625 0 0
vt 0.65625 0.25 0
vt 0.609375 0.25 0
vt 0.609375 0.25 0
vt 0.5625 0.25 0
vt 0.65625 0.1875 0
vt 0.67187649011611936 0 0
vt 0.5 0.18750005960464476 0
vt 0.609375 0.1875 0
vt 0.5 0 0
# 18 texture coords

g LArm
usemtl Material
s 64
f 49/102/145 50/106/146 52/104/147 51/115/148
f 51/105/149 52/107/150 56/117/151 55/108/152
f 55/108/153 56/117/154 54/103/155 53/109/156
f 53/109/157 54/103/158 50/116/159 49/118/160
f 51/111/161 55/101/162 53/114/163 49/110/164
f 56/117/165 52/112/166 50/113/167 54/103/168
#6 polygons


#
# object LArmOut
#

v -50 -129.999993483171096 -69.99997882031219376
v -50 130.00000651682543661 -70.00002117968887205
v -50 -130.00000651682543661 -149.999978820311128
v -50 129.999993483171096 -150.00002117968779202
v 50 -129.999993483171096 -69.99997882031219376
v 50 130.00000651682543661 -70.00002117968887205
v 50 -130.00000651682543661 -149.999978820311128
v 50 129.999993483171096 -150.00002117968779202
# 8 vertices

vn -1 0 0
vn -1 0 0
vn -1 0 0
vn -1 0 0
vn 0 -1.6292067939183141E-07 -0.99999999999998656
vn 0 -1.6292067939183141E-07 -0.99999999999998656
vn 0 -1.6292067939183141E-07 -0.99999999999998656
vn 0 -1.6292067939183141E-07 -0.99999999999998656
vn 1 0 0
vn 1 0 0
vn 1 0 0
vn 1 0 0
vn 0 1.6292067939183141E-07 0.99999999999998656
vn 0 1.6292067939183141E-07 0.99999999999998656
vn 0 1.6292067939183141E-07 0.99999999999998656
vn 0 1.6292067939183141E-07 0.99999999999998656
vn 0 -0.99999999999998656 1.6292067939183141E-07
vn 0 -0.99999999999998656 1.6292067939183141E-07
vn 0 -0.99999999999998656 1.6292067939183141E-07
vn 0 -0.99999999999998656 1.6292067939183141E-07
vn 0 0.99999999999998656 -1.6292067939183141E-07
vn 0 0.99999999999998656 -1.6292067939183141E-07
vn 0 0.99999999999998656 -1.6292067939183141E-07
vn 0 0.99999999999998656 -1.6292067939183141E-07
# 24 vertex normals

vt 0.8125 0.25 0
vt 0.8125 0 0
vt 0.859375 0.25 0
vt 0.90625 0.1875 0
vt 0.859375 0.1875 0
vt 0.96875 -5.960464477539063E-08 0
vt 0.859375 0 0
vt 0.75 0.18750005960464476 0
vt 0.75 0 0
vt 0.859375 0.25 0
vt 0.859375 0.1875 0
vt 0.921875 0.1875 0
vt 0.8125 0.1875 0
vt 0.90625 0.25 0
vt 0.96875 0.18749994039535524 0
vt 0.921875 0 0
# 16 texture coords

g LArmOut
usemtl Material
s 128
f 57/124/169 58/133/170 60/130/171 59/134/172
f 59/134/173 60/130/174 64/123/175 63/125/176
f 63/125/177 64/123/178 62/131/179 61/120/180
f 61/120/181 62/131/182 58/126/183 57/127/184
f 59/128/185 63/129/186 61/122/187 57/132/188
f 64/123/189 60/121/190 58/119/191 62/131/192
#6 polygons


#
# object LLeg
#

v -40 -360.00001637135483179 1.955048225710243E-05
v -40 -120.00000111256895252 -1.9550483322916534E-05
v -40 -360.00002940500917247 -79.99998044951666992
v -40 -120.00001414622332163 -80.00001955048224999
v 40 -360.00001637135483179 1.955048225710243E-05
v 40 -120.00000111256895252 -1.9550483322916534E-05
v 40 -360.00002940500917247 -79.99998044951666992
v 40 -120.00001414622332163 -80.00001955048224999
# 8 vertices

vn -1 0 0
vn -1 0 0
vn -1 0 0
vn -1 0 0
vn 0 -1.6292067939183141E-07 -0.99999999999998656
vn 0 -1.6292067939183141E-07 -0.99999999999998656
vn 0 -1.6292067939183141E-07 -0.99999999999998656
vn 0 -1.6292067939183141E-07 -0.99999999999998656
vn 1 0 0
vn 1 0 0
vn 1 0 0
vn 1 0 0
vn 0 1.6292067939183141E-07 0.99999999999998656
vn 0 1.6292067939183141E-07 0.99999999999998656
vn 0 1.6292067939183141E-07 0.99999999999998656
vn 0 1.6292067939183141E-07 0.99999999999998656
vn 0 -0.99999999999998656 1.6292067939183141E-07
vn 0 -0.99999999999998656 1.6292067939183141E-07
vn 0 -0.99999999999998656 1.6292067939183141E-07
vn 0 -0.99999999999998656 1.6292067939183141E-07
vn 0 0.99999999999998656 -1.6292067939183141E-07
vn 0 0.99999999999998656 -1.6292067939183141E-07
vn 0 0.99999999999998656 -1.6292067939183141E-07
vn 0 0.99999999999998656 -1.6292067939183141E-07
# 24 vertex normals

vt 0.4375 0.1875 0
vt 0.375 0 0
vt 0.5 0.18749994039535524 0
vt 0.5 -5.960464477539063E-08 0
vt 0.4375 0.1875 0
vt 0.25 0 0
vt 0.3125 0.1875 0
vt 0.25 0.18750005960464476 0
vt 0.375 0.1875 0
vt 0.375 0.25 0
vt 0.3125 0.25 0
vt 0.4375 0 0
vt 0.375 0.25 0
vt 0.4375 0.25 0
vt 0.3125 0 0
vt 0.375 0.1875 0
# 16 texture coords

g LLeg
usemtl Material
s 256
f 65/138/193 66/137/194 68/139/195 67/146/196
f 67/146/197 68/139/198 72/150/199 71/136/200
f 71/136/201 72/150/202 70/141/203 69/149/204
f 69/149/205 70/141/206 66/142/207 65/140/208
f 67/147/209 71/143/210 69/135/211 65/148/212
f 72/150/213 68/144/214 66/145/215 70/141/216
#6 polygons


#
# object LLegOut
#

v -50 -370.00000711275333742 10.00002117968767123
v -50 -110.00000711275680487 9.99997882031099296
v -50 -370.00002340482132012 -89.99997882031098576
v -50 -110.00002340482478757 -90.00002117968767834
v 50 -370.00000711275333742 10.00002117968767123
v 50 -110.00000711275680487 9.99997882031099296
v 50 -370.00002340482132012 -89.99997882031098576
v 50 -110.00002340482478757 -90.00002117968767834
# 8 vertices

vn -1 0 0
vn -1 0 0
vn -1 0 0
vn -1 0 0
vn 0 -1.6292067939183141E-07 -0.99999999999998656
vn 0 -1.6292067939183141E-07 -0.99999999999998656
vn 0 -1.6292067939183141E-07 -0.99999999999998656
vn 0 -1.6292067939183141E-07 -0.99999999999998656
vn 1 0 0
vn 1 0 0
vn 1 0 0
vn 1 0 0
vn 0 1.6292067939183141E-07 0.99999999999998656
vn 0 1.6292067939183141E-07 0.99999999999998656
vn 0 1.6292067939183141E-07 0.99999999999998656
vn 0 1.6292067939183141E-07 0.99999999999998656
vn 0 -0.99999999999998656 1.6292067939183141E-07
vn 0 -0.99999999999998656 1.6292067939183141E-07
vn 0 -0.99999999999998656 1.6292067939183141E-07
vn 0 -0.99999999999998656 1.6292067939183141E-07
vn 0 0.99999999999998656 -1.6292067939183141E-07
vn 0 0.99999999999998656 -1.6292067939183141E-07
vn 0 0.99999999999998656 -1.6292067939183141E-07
vn 0 0.99999999999998656 -1.6292067939183141E-07
# 24 vertex normals

vt 0 0.18750005960464476 0
vt 0.1875 0.25 0
vt 0.0625 0.25 0
vt 0.1875 0.1875 0
vt 0.0625 0.1875 0
vt 0.125 0.25 0
vt 0.1875 0.1875 0
vt 0.25 0.18749994039535524 0
vt 0.125 0.1875 0
vt 0.125 0 0
vt 0.125 0.25 0
vt 0.1875 0 0
vt 0.25 -5.960464477539063E-08 0
vt 0.125 0.1875 0
vt 0.0625 0 0
vt 0 0 0
# 16 texture coords

g LLegOut
usemtl Material
s 512
f 73/163/217 74/158/218 76/157/219 75/162/220
f 75/162/221 76/157/222 80/159/223 79/160/224
f 79/160/225 80/159/226 78/155/227 77/165/228
f 77/165/229 78/155/230 74/151/231 73/166/232
f 75/161/233 79/164/234 77/154/235 73/152/236
f 80/159/237 76/156/238 74/153/239 78/155/240
#6 polygons


#
# object RLeg
#

v -40 -360.00001637135483179 80.00001955048224999
v -40 -120.00000111256895252 79.99998044951666992
v -40 -360.00002940500917247 1.9550483322916534E-05
v -40 -120.00001414622332163 -1.955048225710243E-05
v 40 -360.00001637135483179 80.00001955048224999
v 40 -120.00000111256895252 79.99998044951666992
v 40 -360.00002940500917247 1.9550483322916534E-05
v 40 -120.00001414622332163 -1.955048225710243E-05
# 8 vertices

vn -1 0 0
vn -1 0 0
vn -1 0 0
vn -1 0 0
vn 0 -1.6292067939183141E-07 -0.99999999999998656
vn 0 -1.6292067939183141E-07 -0.99999999999998656
vn 0 -1.6292067939183141E-07 -0.99999999999998656
vn 0 -1.6292067939183141E-07 -0.99999999999998656
vn 1 0 0
vn 1 0 0
vn 1 0 0
vn 1 0 0
vn 0 1.6292067939183141E-07 0.99999999999998656
vn 0 1.6292067939183141E-07 0.99999999999998656
vn 0 1.6292067939183141E-07 0.99999999999998656
vn 0 1.6292067939183141E-07 0.99999999999998656
vn 0 -0.99999999999998656 1.6292067939183141E-07
vn 0 -0.99999999999998656 1.6292067939183141E-07
vn 0 -0.99999999999998656 1.6292067939183141E-07
vn 0 -0.99999999999998656 1.6292067939183141E-07
vn 0 0.99999999999998656 -1.6292067939183141E-07
vn 0 0.99999999999998656 -1.6292067939183141E-07
vn 0 0.99999999999998656 -1.6292067939183141E-07
vn 0 0.99999999999998656 -1.6292067939183141E-07
# 24 vertex normals

vt 0.0625 0.75 0
vt 0.1875 0.5 0
vt 0.125 0.6875 0
vt 0.0625 0.5 0
vt 0.125 0.75 0
vt 0 0.5 0
vt 0.25 0.6874999403953552 0
vt 0.125 0.5 0
vt 0.125 0.75 0
vt 0.1875 0.75 0
vt 0.125 0.6875 0
vt 0.25 0.4999999403953552 0
vt 0.1875 0.6875 0
vt 0.0625 0.6875 0
vt 0.1875 0.6875 0
vt 0 0.6875000596046448 0
# 16 texture coords

g RLeg
usemtl Material
s 1024
f 81/178/241 82/173/242 84/181/243 83/168/244
f 83/168/245 84/181/246 88/169/247 87/174/248
f 87/174/249 88/169/250 86/180/251 85/170/252
f 85/170/253 86/180/254 82/182/255 81/172/256
f 83/175/257 87/177/258 85/179/259 81/176/260
f 88/169/261 84/171/262 82/167/263 86/180/264
#6 polygons


#
# object RLegOut
#

v -50 -370.00000711275333742 90.00002117968767834
v -50 -110.00000711275680487 89.99997882031098576
v -50 -370.00002340482132012 -9.99997882031099296
v -50 -110.00002340482478757 -10.00002117968767123
v 50 -370.00000711275333742 90.00002117968767834
v 50 -110.00000711275680487 89.99997882031098576
v 50 -370.00002340482132012 -9.99997882031099296
v 50 -110.00002340482478757 -10.00002117968767123
# 8 vertices

vn -1 0 0
vn -1 0 0
vn -1 0 0
vn -1 0 0
vn 0 -1.6292067939183141E-07 -0.99999999999998656
vn 0 -1.6292067939183141E-07 -0.99999999999998656
vn 0 -1.6292067939183141E-07 -0.99999999999998656
vn 0 -1.6292067939183141E-07 -0.99999999999998656
vn 1 0 0
vn 1 0 0
vn 1 0 0
vn 1 0 0
vn 0 1.6292067939183141E-07 0.99999999999998656
vn 0 1.6292067939183141E-07 0.99999999999998656
vn 0 1.6292067939183141E-07 0.99999999999998656
vn 0 1.6292067939183141E-07 0.99999999999998656
vn 0 -0.99999999999998656 1.6292067939183141E-07
vn 0 -0.99999999999998656 1.6292067939183141E-07
vn 0 -0.99999999999998656 1.6292067939183141E-07
vn 0 -0.99999999999998656 1.6292067939183141E-07
vn 0 0.99999999999998656 -1.6292067939183141E-07
vn 0 0.99999999999998656 -1.6292067939183141E-07
vn 0 0.99999999999998656 -1.6292067939183141E-07
vn 0 0.99999999999998656 -1.6292067939183141E-07
# 24 vertex normals

vt 0.1875 0.4375 0
vt 0.0625 0.5 0
vt 0.0625 0.4375 0
vt 0.1875 0.4375 0
vt 0 0.4375000596046448 0
vt 0.125 0.4375 0
vt 0 0.25 0
vt 0.0625 0.25 0
vt 0.125 0.5 0
vt 0.1875 0.25 0
vt 0.125 0.25 0
vt 0.25 0.4374999403953552 0
vt 0.125 0.4375 0
vt 0.125 0.5 0
vt 0.1875 0.5 0
vt 0.25 0.24999994039535524 0
# 16 texture coords

g RLegOut
usemtl Material
s 2048
f 89/198/265 90/194/266 92/186/267 91/192/268
f 91/192/269 92/186/270 96/188/271 95/193/272
f 95/193/273 96/188/274 94/185/275 93/190/276
f 93/190/277 94/185/278 90/187/279 89/189/280
f 91/196/281 95/195/282 93/183/283 89/197/284
f 96/188/285 92/191/286 90/184/287 94/185/288
#6 polygons

